<svg width="17" height="17" viewBox="0 0 17 17" fill="none" xmlns="http://www.w3.org/2000/svg">
<path d="M11.1562 8.5C11.1562 9.20448 10.8764 9.88011 10.3783 10.3783C9.88011 10.8764 9.20448 11.1562 8.5 11.1562C7.79552 11.1562 7.11989 10.8764 6.62175 10.3783C6.1236 9.88011 5.84375 9.20448 5.84375 8.5C5.84375 7.79552 6.1236 7.11989 6.62175 6.62175C7.11989 6.1236 7.79552 5.84375 8.5 5.84375C9.20448 5.84375 9.88011 6.1236 10.3783 6.62175C10.8764 7.11989 11.1562 7.79552 11.1562 8.5Z" fill="#B7C0C9"/>
<path fill-rule="evenodd" clip-rule="evenodd" d="M0 8.5C0 8.5 3.1875 2.65625 8.5 2.65625C13.8125 2.65625 17 8.5 17 8.5C17 8.5 13.8125 14.3438 8.5 14.3438C3.1875 14.3438 0 8.5 0 8.5ZM8.5 12.2188C9.48627 12.2188 10.4322 11.827 11.1296 11.1296C11.827 10.4322 12.2188 9.48627 12.2188 8.5C12.2188 7.51373 11.827 6.56785 11.1296 5.87045C10.4322 5.17305 9.48627 4.78125 8.5 4.78125C7.51373 4.78125 6.56785 5.17305 5.87045 5.87045C5.17305 6.56785 4.78125 7.51373 4.78125 8.5C4.78125 9.48627 5.17305 10.4322 5.87045 11.1296C6.56785 11.827 7.51373 12.2188 8.5 12.2188Z" fill="#B7C0C9"/>
</svg>
