<svg width="27" height="26" viewBox="0 0 27 26" fill="none" xmlns="http://www.w3.org/2000/svg">
<circle cx="13.4695" cy="12.6316" r="12.1316" fill="white" stroke="#E1E1E1" stroke-dasharray="2 2"/>
<path d="M13.5 5.96252C12.8819 5.96252 12.2777 6.1458 11.7638 6.48918C11.2499 6.83256 10.8494 7.32062 10.6129 7.89164C10.3764 8.46266 10.3145 9.09099 10.435 9.69718C10.5556 10.3034 10.8533 10.8602 11.2903 11.2972C11.7273 11.7343 12.2842 12.0319 12.8903 12.1525C13.4965 12.2731 14.1249 12.2112 14.6959 11.9746C15.2669 11.7381 15.755 11.3376 16.0983 10.8237C16.4417 10.3098 16.625 9.70559 16.625 9.08752C16.625 8.25872 16.2958 7.46387 15.7097 6.87782C15.1237 6.29176 14.3288 5.96252 13.5 5.96252ZM13.5 10.9625C13.1292 10.9625 12.7666 10.8526 12.4583 10.6465C12.15 10.4405 11.9096 10.1477 11.7677 9.80506C11.6258 9.46244 11.5887 9.08544 11.661 8.72173C11.7334 8.35802 11.912 8.02392 12.1742 7.7617C12.4364 7.49948 12.7705 7.3209 13.1342 7.24855C13.4979 7.1762 13.8749 7.21334 14.2175 7.35525C14.5601 7.49716 14.853 7.73749 15.059 8.04583C15.265 8.35417 15.375 8.71668 15.375 9.08752C15.375 9.58481 15.1775 10.0617 14.8258 10.4134C14.4742 10.765 13.9973 10.9625 13.5 10.9625ZM19.125 17.8375V17.2125C19.125 16.0522 18.6641 14.9394 17.8436 14.1189C17.0231 13.2985 15.9103 12.8375 14.75 12.8375H12.25C11.0897 12.8375 9.97688 13.2985 9.15641 14.1189C8.33594 14.9394 7.875 16.0522 7.875 17.2125V17.8375H9.125V17.2125C9.125 16.3837 9.45424 15.5889 10.0403 15.0028C10.6263 14.4168 11.4212 14.0875 12.25 14.0875H14.75C15.5788 14.0875 16.3737 14.4168 16.9597 15.0028C17.5458 15.5889 17.875 16.3837 17.875 17.2125V17.8375H19.125Z" fill="#E1E1E1"/>
</svg>
